<svg xmlns:dc="http://purl.org/dc/elements/1.1/" xmlns:cc="http://creativecommons.org/ns#" xmlns:rdf="http://www.w3.org/1999/02/22-rdf-syntax-ns#" xmlns:svg="http://www.w3.org/2000/svg" xmlns="http://www.w3.org/2000/svg" id="svg62683" viewBox="0 0 1024 768" height="768px" width="1024px" version="1.1">
  <metadata id="metadata62689">
    <rdf:rdf>
      <cc:work rdf:about="">
        <dc:format>image/svg+xml</dc:format>
        <dc:type rdf:resource="http://purl.org/dc/dcmitype/StillImage"></dc:type>
      </cc:work>
    </rdf:rdf>
  </metadata>
  <defs id="defs62687"></defs>
  <g id="logo-group">
    <g id="letter" style="font-style:normal;font-weight:normal;font-size:72px;font-family:Monoton;text-align:center;text-anchor:middle" aria-label="g">
      <path id="path62691" style="font-style: normal; font-weight: normal; font-size: 72px; font-family: Monoton; text-align: center; text-anchor: middle; fill: rgb(79, 65, 65);" d="m 521.07031,74.335937 h 2.53125 V 100 q -5.625,2.53125 -11.63672,2.53125 -5.66015,0 -10.82812,-2.21484 -5.13281,-2.214848 -8.85938,-5.94141 -3.72656,-3.726563 -5.9414,-8.859375 -2.21485,-5.167969 -2.21485,-10.828125 0,-5.660156 2.21485,-10.792969 2.21484,-5.167969 5.9414,-8.894531 3.72657,-3.726563 8.85938,-5.941406 5.16797,-2.214844 10.82812,-2.214844 6.46875,0 12.16407,2.8125 5.69531,2.777344 9.59765,7.664062 l -2.03906,1.511719 Q 528.13672,54.4375 522.96875,51.90625 517.83594,49.375 511.96484,49.375 q -5.13281,0 -9.84375,2.003906 -4.67578,2.003906 -8.08593,5.414063 -3.375,3.375 -5.37891,8.085937 -2.00391,4.675781 -2.00391,9.808594 0,5.132812 2.00391,9.84375 2.00391,4.675781 5.37891,8.085937 3.41015,3.375 8.08593,5.378907 Q 506.83203,100 511.96484,100 q 4.7461,0 9.10547,-1.6875 v -2.601563 q -4.39453,1.757813 -9.10547,1.757813 -4.64062,0 -8.85937,-1.792969 -4.21875,-1.828125 -7.27735,-4.851562 -3.02343,-3.058594 -4.85156,-7.277344 -1.79297,-4.21875 -1.79297,-8.859375 0,-4.640625 1.79297,-8.859375 1.82813,-4.21875 4.85156,-7.242188 3.0586,-3.058593 7.27735,-4.851562 4.21875,-1.828125 8.85937,-1.828125 5.3086,0 9.94922,2.285156 4.67578,2.285156 7.875,6.292969 l -1.96875,1.582031 q -2.84765,-3.550781 -6.99609,-5.589844 -4.14844,-2.039062 -8.85938,-2.039062 -4.11328,0 -7.875,1.617187 -3.72656,1.582032 -6.46875,4.324219 -2.70703,2.707031 -4.32422,6.46875 -1.58203,3.726563 -1.58203,7.839844 0,4.113281 1.58203,7.875 1.61719,3.726562 4.32422,6.46875 2.74219,2.707031 6.46875,4.324219 3.76172,1.582031 7.875,1.582031 4.85157,0 9.10547,-1.96875 v -2.601563 q -4.2539,2.039063 -9.10547,2.039063 -4.8164,0 -8.89453,-2.355469 -4.07812,-2.390625 -6.46875,-6.46875 -2.35547,-4.078125 -2.35547,-8.894531 0,-4.816406 2.35547,-8.894531 2.39063,-4.078125 6.46875,-6.433594 4.07813,-2.390625 8.89453,-2.390625 4.11328,0 7.73438,1.792969 3.65625,1.757812 6.11719,4.886718 l -2.00391,1.546875 Q 521.70312,62.523437 518.57422,61.011719 515.48047,59.5 511.96484,59.5 q -6.29297,0 -10.75781,4.464844 -4.42969,4.464843 -4.42969,10.722656 0,6.257812 4.42969,10.722656 4.46484,4.464844 10.75781,4.464844 4.92188,0 9.10547,-2.390625 v -2.566406 q -4.11328,2.425781 -9.10547,2.425781 -5.23828,0 -8.96484,-3.691406 -3.69141,-3.726563 -3.69141,-8.964844 0,-5.238281 3.69141,-8.929688 3.72656,-3.726562 8.96484,-3.726562 2.95313,0 5.55469,1.300781 2.60156,1.265625 4.35938,3.480469 l -2.03907,1.546875 q -3.05859,-3.796875 -7.875,-3.796875 -4.18359,0 -7.17187,2.988281 -2.95313,2.953125 -2.95313,7.136719 0,4.183594 2.95313,7.171875 2.98828,2.953125 7.17187,2.953125 5.37891,0 9.10547,-2.988281 z m 15.1875,0 h 2.53125 V 100 h -2.53125 z m -5.0625,0 h 2.53125 V 100 h -2.53125 z m -5.0625,0 h 2.53125 V 100 h -2.53125 z" transform="translate(0 97.60124999999917) translate(429.998045 143.6875) scale(3) translate(-484.12109 -46.84375)"></path>
    </g>
    <g id="title" style="font-style:normal;font-weight:normal;font-size:72px;line-height:1;font-family:Salaryman;font-variant-ligatures:none;text-align:center;text-anchor:middle" aria-label="galata">
      <path id="path62694" style="font-style: normal; font-weight: normal; font-size: 72px; line-height: 1; font-family: Salaryman; font-variant-ligatures: none; text-align: center; text-anchor: middle; fill: rgb(121, 93, 82);" d="m 324.79775,96.816 q -2.016,0 -2.016,2.016 0,1.944 2.016,1.944 h 23.184 v 2.448 q -3.96,4.32 -10.08,6.768 -6.12,2.376 -13.104,2.376 -11.592,0 -19.8,-6.048 -8.208,-6.12 -8.208,-14.688 0,-8.64 8.208,-14.688 8.208,-6.12 19.8,-6.12 7.128,0 13.32,2.52 6.264,2.52 10.152,6.984 v 0 q 0.576,0.72 1.512,0.72 2.016,0 2.016,-2.016 0,-0.72 -0.504,-1.296 -4.536,-5.112 -11.52,-7.992 -6.984,-2.952 -14.976,-2.952 -13.104,0 -22.464,7.128 -9.576,7.272 -9.576,17.712 0,10.44 9.576,17.712 9.288,7.056 22.464,7.056 13.752,0 23.184,-7.704 v 4.536 q 0,1.944 2.016,1.944 1.944,0 1.944,-1.944 V 96.816 Z" transform="translate(0 349.2152499999969) translate(146.69093333332592 94.81600000000223) scale(1.6666666666667) translate(-292.75775 -66.792)"></path>
      <path id="path62696" style="font-style: normal; font-weight: normal; font-size: 72px; line-height: 1; font-family: Salaryman; font-variant-ligatures: none; text-align: center; text-anchor: middle; fill: rgb(121, 93, 82);" d="m 434.32775,111.504 -38.736,-45 -37.512,45 q -0.432,0.504 -0.432,1.224 0,2.088 2.088,2.088 0.864,0 1.44,-0.72 v 0 l 11.376,-13.68 h 46.944 l 11.808,13.68 q 0.648,0.72 1.584,0.72 1.944,0 1.944,-1.944 0,-0.792 -0.504,-1.368 z m -58.392,-15.12 19.728,-23.688 20.448,23.688 z" transform="translate(0 349.2152499999969) translate(254.8409333333281 94.33600000000224) scale(1.6666666666667) translate(-357.64775 -66.504)"></path>
      <path id="path62698" style="font-style: normal; font-weight: normal; font-size: 72px; line-height: 1; font-family: Salaryman; font-variant-ligatures: none; text-align: center; text-anchor: middle; fill: rgb(121, 93, 82);" d="m 500.68137,111.216 h -55.584 V 70.032 q 0,-2.016 -2.016,-2.016 -2.01599,0 -2.01599,2.016 v 45.144 h 59.61599 q 2.01601,0 2.01601,-1.944 0,-2.016 -2.01601,-2.016 z" transform="translate(0 349.2152499999969) translate(393.8703166666643 96.85600000000228) scale(1.6666666666667) translate(-441.06538 -68.016)"></path>
      <path id="path62700" style="font-style: normal; font-weight: normal; font-size: 72px; line-height: 1; font-family: Salaryman; font-variant-ligatures: none; text-align: center; text-anchor: middle; fill: rgb(121, 93, 82);" d="m 583.81213,111.504 -38.736,-45 -37.51201,45 q -0.432,0.504 -0.432,1.224 0,2.088 2.088,2.088 0.864,0 1.44,-0.72 v 0 l 11.376,-13.68 h 46.94401 l 11.808,13.68 q 0.64799,0.72 1.58399,0.72 1.94401,0 1.94401,-1.944 0,-0.792 -0.504,-1.368 z m -58.39201,-15.12 19.72801,-23.688 20.448,23.688 z" transform="translate(0 349.2152499999969) translate(503.9815499999998 94.33600000000224) scale(1.6666666666667) translate(-507.13212 -66.504)"></path>
      <path id="path62702" style="font-style: normal; font-weight: normal; font-size: 72px; line-height: 1; font-family: Salaryman; font-variant-ligatures: none; text-align: center; text-anchor: middle; fill: rgb(121, 93, 82);" d="m 648.22175,67.584 h -57.6 q -2.016,0 -2.016,2.016 0,2.016 2.016,2.016 h 26.784 V 112.8 q 0,2.016 2.016,2.016 2.016,0 2.016,-2.016 V 71.616 h 26.784 q 2.016,0 2.016,-2.016 0,-2.016 -2.016,-2.016 z" transform="translate(0 349.2152499999969) translate(639.770933333336 96.13600000000226) scale(1.6666666666667) translate(-588.60575 -67.584)"></path>
      <path id="path62704" style="font-style: normal; font-weight: normal; font-size: 72px; line-height: 1; font-family: Salaryman; font-variant-ligatures: none; text-align: center; text-anchor: middle; fill: rgb(121, 93, 82);" d="m 730.62463,111.504 -38.736,-45 -37.51201,45 q -0.432,0.504 -0.432,1.224 0,2.088 2.08801,2.088 0.86399,0 1.43999,-0.72 v 0 l 11.376,-13.68 h 46.94401 l 11.808,13.68 q 0.64799,0.72 1.58399,0.72 1.94401,0 1.94401,-1.944 0,-0.792 -0.504,-1.368 z m -58.39201,-15.12 19.72801,-23.688 20.448,23.688 z" transform="translate(0 349.2152499999969) translate(748.669050000005 94.33600000000224) scale(1.6666666666667) translate(-653.94462 -66.504)"></path>
    </g>
    <g id="tagline" style="font-style:normal;font-weight:normal;font-size:32px;line-height:1;font-family:Montserrat;font-variant-ligatures:none;text-align:center;text-anchor:middle"></g>
  </g>
</svg>